<svg width="18" height="18" viewBox="0 0 18 18" fill="none" xmlns="http://www.w3.org/2000/svg">
<path d="M0 2.88043C0 2.32843 0.186 1.87843 0.558 1.53043C0.93 1.18243 1.428 1.00843 2.052 1.00843C2.676 1.00843 3.174 1.18543 3.546 1.53943C3.918 1.89343 4.104 2.35843 4.104 2.93443C4.104 3.45043 3.912 3.88543 3.528 4.23943C3.144 4.59343 2.646 4.77043 2.034 4.77043H2.016C1.404 4.77043 0.915 4.59043 0.549 4.23043C0.183 3.87043 0 3.42043 0 2.88043ZM0.216 17.1904V6.26443H3.852V17.1904H0.216ZM5.868 17.1904H9.522V11.0884C9.522 10.7044 9.564 10.4104 9.648 10.2064C9.792 9.83443 10.026 9.51943 10.35 9.26143C10.674 9.00343 11.064 8.87443 11.52 8.87443C12.744 8.87443 13.356 9.70243 13.356 11.3584V17.1904H16.992V10.9264C16.992 9.29443 16.611 8.06743 15.849 7.24543C15.087 6.42343 14.076 6.01243 12.816 6.01243C11.388 6.01243 10.29 6.61243 9.522 7.81243V7.84843H9.504L9.522 7.81243V6.26443H5.868C5.892 6.72043 5.904 7.80643 5.904 9.52243C5.904 10.4464 5.898 12.2644 5.886 14.9764L5.868 17.1904Z" fill="#6785FF"/>
</svg>
